<svg width="900" height="234" viewBox="0 0 900 234" fill="none" xmlns="http://www.w3.org/2000/svg">
<path d="M807.857 233.736C797.416 233.736 788.112 231.925 779.945 228.303C771.777 224.609 765.314 219.176 760.555 212.003C755.868 204.759 753.524 195.739 753.524 184.943C753.524 175.852 755.193 168.217 758.531 162.038C761.869 155.859 766.415 150.888 772.168 147.124C777.92 143.359 784.455 140.518 791.77 138.601C799.156 136.683 806.898 135.334 814.994 134.553C824.511 133.558 832.182 132.635 838.006 131.783C843.83 130.859 848.055 129.51 850.683 127.734C853.311 125.959 854.625 123.331 854.625 119.851V119.212C854.625 112.464 852.494 107.244 848.233 103.551C844.043 99.858 838.077 98.0114 830.335 98.0114C822.168 98.0114 815.669 99.8224 810.839 103.445C806.01 106.996 802.814 111.47 801.251 116.868L759.277 113.459C761.408 103.516 765.598 94.9219 771.848 87.6776C778.098 80.3622 786.159 74.7514 796.031 70.8452C805.974 66.8679 817.48 64.8793 830.548 64.8793C839.639 64.8793 848.34 65.9446 856.649 68.0753C865.03 70.206 872.452 73.5085 878.915 77.983C885.449 82.4574 890.598 88.2102 894.362 95.2415C898.126 102.202 900.008 110.547 900.008 120.277V230.646H856.969V207.955H855.69C853.063 213.068 849.547 217.578 845.143 221.484C840.74 225.32 835.449 228.338 829.27 230.54C823.091 232.67 815.953 233.736 807.857 233.736ZM820.854 202.415C827.53 202.415 833.425 201.101 838.538 198.473C843.652 195.774 847.665 192.152 850.577 187.607C853.489 183.061 854.945 177.912 854.945 172.159V154.794C853.524 155.717 851.571 156.57 849.085 157.351C846.67 158.061 843.936 158.736 840.882 159.375C837.828 159.943 834.774 160.476 831.72 160.973C828.666 161.399 825.896 161.79 823.411 162.145C818.084 162.926 813.432 164.169 809.455 165.874C805.477 167.578 802.388 169.886 800.186 172.798C797.984 175.639 796.884 179.19 796.884 183.452C796.884 189.631 799.121 194.354 803.595 197.621C808.141 200.817 813.893 202.415 820.854 202.415Z" fill="#3B82F6"/>
<path d="M685.456 230.646V67.0099H730.84V230.646H685.456ZM708.255 45.9162C701.507 45.9162 695.719 43.679 690.889 39.2045C686.131 34.6591 683.752 29.2259 683.752 22.9048C683.752 16.6548 686.131 11.2926 690.889 6.81819C695.719 2.27273 701.507 0 708.255 0C715.002 0 720.755 2.27273 725.513 6.81819C730.343 11.2926 732.757 16.6548 732.757 22.9048C732.757 29.2259 730.343 34.6591 725.513 39.2045C720.755 43.679 715.002 45.9162 708.255 45.9162Z" fill="#3B82F6"/>
<path d="M661.893 67.0099V101.101H563.349V67.0099H661.893ZM585.721 27.8054H631.105V180.362C631.105 184.553 631.744 187.82 633.022 190.163C634.301 192.436 636.076 194.034 638.349 194.957C640.693 195.881 643.392 196.342 646.445 196.342C648.576 196.342 650.707 196.165 652.838 195.81C654.968 195.383 656.602 195.064 657.738 194.851L664.876 228.622C662.603 229.332 659.407 230.149 655.288 231.072C651.169 232.067 646.161 232.67 640.266 232.883C629.329 233.31 619.741 231.854 611.502 228.516C603.335 225.178 596.978 219.993 592.433 212.962C587.887 205.93 585.65 197.053 585.721 186.328V27.8054Z" fill="#3B82F6"/>
<path d="M548.548 113.672L507 116.229C506.29 112.678 504.763 109.482 502.419 106.641C500.075 103.729 496.986 101.42 493.15 99.7159C489.386 97.9403 484.876 97.0526 479.621 97.0526C472.589 97.0526 466.659 98.544 461.829 101.527C457 104.439 454.585 108.345 454.585 113.246C454.585 117.152 456.148 120.455 459.273 123.153C462.398 125.852 467.76 128.018 475.359 129.652L504.976 135.618C520.885 138.885 532.746 144.141 540.558 151.385C548.371 158.629 552.277 168.146 552.277 179.936C552.277 190.661 549.116 200.071 542.795 208.168C536.545 216.264 527.952 222.585 517.014 227.131C506.148 231.605 493.612 233.842 479.408 233.842C457.746 233.842 440.487 229.332 427.632 220.313C414.848 211.222 407.355 198.864 405.153 183.239L449.791 180.895C451.141 187.5 454.408 192.543 459.592 196.023C464.777 199.432 471.418 201.136 479.514 201.136C487.469 201.136 493.861 199.609 498.69 196.555C503.591 193.43 506.077 189.418 506.148 184.517C506.077 180.398 504.337 177.024 500.927 174.396C497.518 171.697 492.263 169.638 485.16 168.217L456.822 162.571C440.842 159.375 428.946 153.835 421.133 145.952C413.392 138.068 409.521 128.018 409.521 115.803C409.521 105.291 412.362 96.2358 418.044 88.6364C423.797 81.0369 431.858 75.1776 442.227 71.0582C452.668 66.9389 464.883 64.8793 478.875 64.8793C499.543 64.8793 515.807 69.2472 527.668 77.983C539.599 86.7188 546.56 98.6151 548.548 113.672Z" fill="#3B82F6"/>
<path d="M313.675 233.842C296.842 233.842 282.354 230.433 270.209 223.615C258.135 216.726 248.831 206.996 242.297 194.425C235.763 181.783 232.496 166.832 232.496 149.574C232.496 132.741 235.763 117.969 242.297 105.256C248.831 92.5426 258.028 82.6349 269.889 75.5327C281.821 68.4304 295.812 64.8793 311.864 64.8793C322.659 64.8793 332.709 66.6193 342.013 70.0994C351.388 73.5085 359.555 78.6577 366.516 85.5469C373.547 92.4361 379.016 101.101 382.922 111.541C386.828 121.911 388.781 134.055 388.781 147.976V160.44H250.606V132.315H346.061C346.061 125.781 344.641 119.993 341.8 114.95C338.959 109.908 335.017 105.966 329.974 103.125C325.003 100.213 319.214 98.7571 312.609 98.7571C305.72 98.7571 299.612 100.355 294.285 103.551C289.03 106.676 284.91 110.902 281.927 116.229C278.944 121.484 277.417 127.344 277.346 133.807V160.547C277.346 168.643 278.838 175.639 281.821 181.534C284.875 187.429 289.172 191.974 294.712 195.17C300.251 198.366 306.821 199.964 314.42 199.964C319.463 199.964 324.079 199.254 328.27 197.834C332.46 196.413 336.047 194.283 339.03 191.442C342.013 188.601 344.285 185.121 345.848 181.001L387.822 183.771C385.692 193.857 381.324 202.663 374.719 210.192C368.185 217.649 359.733 223.473 349.364 227.663C339.065 231.783 327.169 233.842 313.675 233.842Z" fill="#3B82F6"/>
<path d="M208.746 12.4645V230.646H163.363V12.4645H208.746Z" fill="#3B82F6"/>
<path d="M0 230.646V12.4645H46.1293V192.614H139.666V230.646H0Z" fill="#3B82F6"/>
</svg>
